<svg width="24" height="24" viewBox="0 0 24 24" fill="none" xmlns="http://www.w3.org/2000/svg">
<mask id="mask0_12_22" style="mask-type:alpha" maskUnits="userSpaceOnUse" x="0" y="0" width="24" height="24">
<rect width="24" height="24" fill="#D9D9D9"/>
</mask>
<g mask="url(#mask0_12_22)">
<path d="M12.413 16.5761L8.45652 12.9707C8.30435 12.832 8.19022 12.6818 8.11413 12.52C8.03804 12.3582 8 12.1849 8 12C8 11.8151 8.03804 11.6418 8.11413 11.48C8.19022 11.3182 8.30435 11.168 8.45652 11.0293L12.413 7.42394C12.8949 6.98483 13.4463 6.88684 14.0672 7.12997C14.6891 7.37217 15 7.80528 15 8.42929V15.5707C15 16.1947 14.6891 16.6278 14.0672 16.87C13.4463 17.1132 12.8949 17.0152 12.413 16.5761Z" fill="#404040"/>
</g>
</svg>
