<svg width="24" height="24" viewBox="0 0 24 24" fill="none" xmlns="http://www.w3.org/2000/svg">
<mask id="mask0_12_16" style="mask-type:alpha" maskUnits="userSpaceOnUse" x="0" y="0" width="24" height="24">
<rect width="24" height="24" fill="#D9D9D9"/>
</mask>
<g mask="url(#mask0_12_16)">
<path d="M11.587 16.5761C11.1051 17.0152 10.5537 17.1132 9.93283 16.87C9.31094 16.6278 9 16.1947 9 15.5707V8.42929C9 7.80528 9.31094 7.37217 9.93283 7.12997C10.5537 6.88684 11.1051 6.98483 11.587 7.42394L15.5435 11.0293C15.6957 11.168 15.8098 11.3182 15.8859 11.48C15.962 11.6418 16 11.8151 16 12C16 12.1849 15.962 12.3582 15.8859 12.52C15.8098 12.6818 15.6957 12.832 15.5435 12.9707L11.587 16.5761Z" fill="#404040"/>
</g>
</svg>
